<svg xmlns="http://www.w3.org/2000/svg" viewBox="0 0 980 610" role="img" aria-labelledby="title desc">
  <title id="title">SI EGYPTE indoor train attraction</title>
  <desc id="desc">A colorful indoor trackless train with smiling passengers in a shopping centre style scene.</desc>
  <defs>
    <linearGradient id="mall" x1="0" x2="1" y1="0" y2="1">
      <stop stop-color="#FFFFFF"/>
      <stop offset=".45" stop-color="#FFF4DC"/>
      <stop offset="1" stop-color="#DCEBFF"/>
    </linearGradient>
    <linearGradient id="trainBlue" x1="0" x2="1">
      <stop stop-color="#1593FF"/>
      <stop offset=".42" stop-color="#1266F1"/>
      <stop offset="1" stop-color="#071B3A"/>
    </linearGradient>
    <linearGradient id="redFront" x1="0" x2="1" y1="0" y2="1">
      <stop stop-color="#FF3B30"/>
      <stop offset="1" stop-color="#B81018"/>
    </linearGradient>
    <filter id="shadow" x="-20%" y="-20%" width="140%" height="150%">
      <feDropShadow dx="0" dy="24" stdDeviation="18" flood-color="#071B3A" flood-opacity=".24"/>
    </filter>
    <filter id="glow" x="-80%" y="-80%" width="260%" height="260%">
      <feGaussianBlur stdDeviation="10" result="blur"/>
      <feMerge>
        <feMergeNode in="blur"/>
        <feMergeNode in="SourceGraphic"/>
      </feMerge>
    </filter>
  </defs>
  <rect width="980" height="610" rx="22" fill="url(#mall)"/>
  <path d="M0 457c148-50 272-54 374-11 104 43 224 40 360-10 89-33 171-47 246-42v216H0Z" fill="#1266F1" opacity=".12"/>
  <path d="M0 493c136-35 279-35 430 0 139 32 322 17 550-45v162H0Z" fill="#1266F1" opacity=".9"/>
  <g opacity=".55">
    <rect x="34" y="45" width="96" height="212" rx="18" fill="#FFFFFF"/>
    <rect x="153" y="34" width="122" height="224" rx="18" fill="#FFFFFF"/>
    <rect x="300" y="54" width="108" height="207" rx="18" fill="#FFFFFF"/>
    <rect x="711" y="46" width="90" height="205" rx="18" fill="#FFFFFF"/>
    <rect x="821" y="32" width="122" height="230" rx="18" fill="#FFFFFF"/>
    <path d="M54 91h855" stroke="#E2E8F0" stroke-width="8" stroke-linecap="round"/>
    <path d="M58 151h820" stroke="#E2E8F0" stroke-width="5" stroke-linecap="round"/>
  </g>
  <g fill="#FFFFFF" opacity=".86">
    <circle cx="85" cy="327" r="22"/>
    <circle cx="170" cy="301" r="25"/>
    <circle cx="254" cy="326" r="20"/>
    <circle cx="748" cy="299" r="24"/>
    <circle cx="854" cy="328" r="18"/>
  </g>
  <g fill="none" stroke-linecap="round" stroke-linejoin="round">
    <path d="M185 92l13 27 30 4-22 21 6 30-27-15-27 15 6-30-22-21 30-4Z" fill="#FFD23F" stroke="#FFFFFF" stroke-width="7"/>
    <path d="M845 80c24-30 66-9 54 29-8 27-45 43-54 62-10-19-47-35-54-62-12-38 30-59 54-29Z" fill="#EF4444" stroke="#FFFFFF" stroke-width="7"/>
    <path d="M902 154c17-23 49-7 41 22-5 20-33 32-41 47-8-15-36-27-41-47-8-29 24-45 41-22Z" fill="#FFD23F" stroke="#FFFFFF" stroke-width="6"/>
    <path d="M846 171v87M902 223v54" stroke="#667085" stroke-width="4"/>
  </g>
  <g filter="url(#shadow)">
    <ellipse cx="571" cy="504" rx="340" ry="38" fill="#071B3A" opacity=".22"/>
    <path d="M377 172h95c25 0 46 20 46 46v211H333V216c0-24 20-44 44-44Z" fill="url(#redFront)"/>
    <path d="M392 122h75c20 0 37 17 37 37v38H356v-38c0-20 16-37 36-37Z" fill="#071B3A"/>
    <rect x="370" y="206" width="119" height="77" rx="22" fill="#FF7A1A"/>
    <path d="M298 403h230l-48 91H255Z" fill="#D80F22"/>
    <path d="M275 437h223" stroke="#071B3A" stroke-width="13"/>
    <path d="M295 466h174" stroke="#071B3A" stroke-width="11"/>
    <circle cx="429" cy="293" r="52" fill="#071B3A"/>
    <circle cx="429" cy="293" r="37" fill="#FFD23F" filter="url(#glow)"/>
    <circle cx="429" cy="293" r="20" fill="#FFFFFF"/>
    <path d="M505 207h260c52 0 94 42 94 94v122H503Z" fill="url(#trainBlue)"/>
    <path d="M765 243h66c27 0 49 22 49 49v131H765Z" fill="#EF4444"/>
    <rect x="545" y="238" width="67" height="66" rx="18" fill="#F7FAFF"/>
    <rect x="633" y="238" width="67" height="66" rx="18" fill="#F7FAFF"/>
    <rect x="721" y="238" width="47" height="66" rx="18" fill="#F7FAFF"/>
    <path d="M496 423h399" stroke="#071B3A" stroke-width="24" stroke-linecap="round"/>
    <circle cx="560" cy="449" r="43" fill="#071B3A"/>
    <circle cx="560" cy="449" r="19" fill="#FFD23F"/>
    <circle cx="720" cy="449" r="43" fill="#071B3A"/>
    <circle cx="720" cy="449" r="19" fill="#FFD23F"/>
    <circle cx="852" cy="449" r="43" fill="#071B3A"/>
    <circle cx="852" cy="449" r="19" fill="#FFD23F"/>
    <path d="M330 369h553" stroke="#FFD23F" stroke-width="15" stroke-linecap="round"/>
    <path d="M342 327h549" stroke="#FF7A1A" stroke-width="10" stroke-linecap="round"/>
  </g>
  <g>
    <g transform="translate(557 223)">
      <circle cx="0" cy="0" r="20" fill="#FFD7B5"/>
      <path d="M-21 53c4-34 15-51 35-51s31 17 35 51Z" fill="#22C55E"/>
      <path d="M-18-7c9-25 43-20 43 8-18-8-30-8-43-8Z" fill="#071B3A"/>
    </g>
    <g transform="translate(646 223)">
      <circle cx="0" cy="0" r="20" fill="#FFD7B5"/>
      <path d="M-22 53c5-34 17-51 37-51s31 17 36 51Z" fill="#EF4444"/>
      <path d="M-18-5c11-26 43-18 42 9-16-9-31-9-42-9Z" fill="#071B3A"/>
    </g>
    <g transform="translate(735 222)">
      <circle cx="0" cy="0" r="20" fill="#FFD7B5"/>
      <path d="M-22 53c4-33 16-50 35-50 21 0 33 17 37 50Z" fill="#FFD23F"/>
      <path d="M-18-5c11-25 44-17 42 9-16-8-31-8-42-9Z" fill="#071B3A"/>
    </g>
  </g>
  <g fill="#071B3A" opacity=".18">
    <circle cx="128" cy="414" r="8"/>
    <circle cx="913" cy="354" r="9"/>
    <circle cx="212" cy="245" r="6"/>
    <path d="M145 230l14 14 14-14 14 14" fill="none" stroke="#1266F1" stroke-width="8" stroke-linecap="round"/>
    <path d="M876 285l15 15 15-15 15 15" fill="none" stroke="#FF7A1A" stroke-width="8" stroke-linecap="round"/>
  </g>
</svg>
